<?xml version="1.0" standalone="no"?>
<!DOCTYPE svg PUBLIC "-//W3C//DTD SVG 20010904//EN"
 "http://www.w3.org/TR/2001/REC-SVG-20010904/DTD/svg10.dtd">
<svg version="1.0" xmlns="http://www.w3.org/2000/svg"
 width="1024.000000pt" height="1024.000000pt" viewBox="0 0 1024.000000 1024.000000"
 preserveAspectRatio="xMidYMid meet">

<g transform="translate(0.000000,1024.000000) scale(0.100000,-0.100000)"
fill="#032614" stroke="none">
<path d="M0 5120 l0 -5120 5120 0 5120 0 0 5120 0 5120 -5120 0 -5120 0 0
-5120z m7578 4162 c188 -59 310 -255 272 -438 -55 -267 -335 -419 -558 -303
-131 69 -221 199 -230 333 -11 173 105 352 265 411 56 20 180 19 251 -3z
m-2271 -178 c19 -9 45 -31 58 -49 25 -32 25 -32 102 -27 43 2 141 -3 217 -13
84 -10 162 -14 196 -10 68 8 134 -8 164 -39 11 -12 70 -39 131 -61 61 -21 127
-47 148 -57 46 -23 64 -56 47 -88 -14 -26 -24 -24 -161 29 -52 21 -113 41
-135 45 l-39 7 25 -17 c62 -44 235 -198 280 -250 27 -31 55 -71 61 -89 11 -28
17 -32 48 -32 52 0 94 -26 132 -78 19 -27 43 -48 58 -51 14 -3 31 -7 36 -9 17
-4 45 15 45 30 0 9 5 24 12 35 7 10 10 21 8 22 -3 2 -30 16 -60 31 -30 15 -48
27 -40 27 48 0 210 -114 210 -147 0 -22 45 -58 117 -92 66 -31 92 -59 78 -82
-8 -12 -81 9 -179 51 -51 22 -98 40 -104 40 -30 0 -11 -30 47 -74 36 -27 93
-72 126 -100 33 -29 87 -73 120 -98 74 -57 113 -94 142 -133 24 -33 27 -25 14
44 -10 50 -5 71 15 71 19 0 51 -37 59 -68 23 -97 25 -100 90 -151 54 -43 65
-56 65 -81 0 -38 -16 -38 -66 0 -66 50 -66 48 -22 -112 29 -104 36 -118 55
-118 15 0 23 8 27 28 9 36 50 87 64 78 6 -4 14 -23 18 -42 5 -27 19 -44 60
-76 68 -51 123 -135 199 -303 49 -108 76 -185 141 -405 2 -8 0 -22 -6 -30 -9
-13 -16 -8 -43 25 -18 22 -75 85 -127 140 -52 55 -111 123 -130 152 -19 29
-36 51 -38 49 -1 -2 8 -41 22 -87 27 -94 84 -395 93 -494 6 -65 6 -65 -20 -65
-14 0 -29 4 -32 10 -3 5 -10 49 -16 97 -12 112 -41 261 -85 437 -38 151 -43
251 -14 251 8 0 67 -69 130 -153 64 -84 130 -167 148 -185 l33 -32 -31 85
c-57 156 -143 321 -222 427 -22 28 -44 68 -49 88 l-11 37 -28 -29 -29 -30 20
-41 c30 -60 36 -141 13 -170 -42 -52 -155 -48 -207 6 -67 69 -53 174 28 219
18 10 18 12 -3 61 -12 27 -28 87 -36 133 -8 46 -18 92 -21 101 -11 27 -281
268 -302 268 -14 0 -197 184 -218 219 -11 18 -41 45 -67 60 l-48 26 -30 -37
c-29 -35 -77 -58 -121 -58 -9 0 -43 17 -75 39 -33 21 -75 42 -94 46 -29 6 -92
43 -243 139 -22 14 -32 45 -18 59 7 7 35 -5 93 -40 46 -27 104 -62 130 -77 26
-15 52 -35 58 -46 16 -30 26 -24 22 14 -2 20 4 52 16 79 l20 46 -36 12 c-20 6
-127 58 -237 114 -110 57 -249 124 -310 148 -112 46 -324 117 -347 117 -7 0
25 -24 72 -53 108 -66 240 -158 240 -166 0 -3 -4 -12 -9 -20 -14 -21 -52 -7
-138 54 -312 219 -328 216 -137 -24 33 -42 78 -103 100 -136 175 -264 239
-352 284 -392 26 -23 55 -61 64 -83 8 -22 54 -95 101 -162 47 -67 84 -128 83
-137 -7 -38 -37 -20 -99 60 -35 45 -91 115 -124 156 -33 41 -91 123 -130 182
-38 59 -93 139 -121 177 -28 38 -107 155 -176 259 -168 256 -191 274 -140 108
55 -176 79 -264 143 -525 l63 -257 54 -36 c29 -19 83 -47 119 -60 76 -29 76
-29 68 -12 -4 6 1 3 9 -7 9 -11 16 -16 16 -10 0 5 3 5 8 -1 4 -5 45 -30 92
-54 105 -54 128 -74 111 -95 -16 -19 -35 -12 -241 84 -94 45 -156 68 -158 61
-2 -6 -10 -11 -17 -11 -8 0 -16 -4 -19 -9 -5 -8 51 -306 74 -390 12 -45 51
-69 71 -45 7 9 46 34 87 57 105 60 105 60 137 84 17 12 24 23 18 23 -7 0 -13
5 -13 11 0 8 4 8 13 0 9 -7 24 -8 47 -1 19 5 35 8 38 6 2 -3 -6 -18 -19 -35
-24 -33 -102 -91 -218 -161 -41 -25 -76 -51 -79 -59 -3 -8 1 -12 9 -9 26 9
482 -124 519 -151 14 -10 25 -24 25 -32 0 -21 -51 -14 -220 32 -221 60 -275
78 -306 100 -15 10 -29 16 -31 11 -1 -4 -17 -17 -34 -29 -29 -21 -30 -24 -26
-85 3 -50 9 -69 29 -89 27 -29 46 -93 37 -124 -4 -11 -18 -32 -32 -48 -26 -27
-26 -28 -23 -174 l3 -147 29 -30 c16 -16 29 -33 29 -37 0 -4 15 -10 33 -13 55
-10 448 -136 525 -168 74 -31 84 -44 55 -70 -16 -14 -25 -13 -98 20 -44 19
-120 48 -170 63 -263 80 -331 102 -339 109 -5 5 -14 4 -20 -1 -6 -5 -19 -15
-29 -22 -17 -12 -18 -35 -17 -326 l1 -313 29 -37 c16 -20 32 -50 36 -66 5 -27
14 -33 82 -56 125 -43 293 -107 355 -136 44 -21 57 -32 57 -49 0 -30 -18 -35
-60 -14 -19 10 -102 43 -185 75 -82 31 -176 69 -208 84 l-58 28 -26 -20 -26
-20 4 -176 4 -176 -38 -3 c-34 -3 -38 -1 -33 15 3 11 7 89 9 174 l2 155 -32
39 c-44 53 -45 101 -2 144 l30 31 1 310 0 311 -41 44 c-23 25 -49 45 -59 45
-26 0 -82 38 -82 55 0 23 28 30 73 18 33 -9 47 -8 74 5 33 16 33 16 33 86 0
39 3 105 6 146 l6 75 -33 24 c-28 21 -33 22 -41 7 -19 -34 -153 -176 -163
-173 -5 2 -11 19 -13 38 -3 32 3 40 73 99 41 36 80 67 85 68 6 2 10 15 10 28
0 31 23 87 50 121 14 17 20 41 20 72 0 42 -5 51 -40 86 -46 45 -48 61 -19 123
l22 44 -32 166 c-17 92 -31 184 -31 204 0 31 -5 40 -29 52 -15 8 -36 26 -45
40 -9 15 -25 26 -35 26 -28 0 -101 57 -101 80 0 31 49 26 98 -10 23 -16 45
-30 48 -30 16 0 -33 235 -79 385 -14 44 -31 107 -37 140 -25 126 -98 355 -113
355 -8 0 6 -676 14 -678 16 -6 49 -79 49 -108 0 -14 -16 -53 -35 -85 -34 -55
-35 -61 -29 -122 7 -70 0 -83 -37 -72 -20 7 -21 12 -16 81 l5 74 -46 44 c-38
36 -48 41 -59 30 -7 -7 -47 -32 -88 -55 -68 -39 -75 -46 -75 -73 0 -17 -13
-103 -29 -191 -17 -88 -35 -200 -41 -250 -6 -49 -18 -132 -27 -183 l-15 -93
23 -17 c61 -42 69 -57 69 -128 0 -67 0 -68 -46 -111 -26 -24 -50 -43 -53 -43
-7 0 -3 -229 4 -266 4 -18 11 -20 77 -20 72 1 73 1 76 -26 3 -28 4 -27 -75
-48 -35 -9 -45 -17 -63 -54 -19 -40 -21 -66 -27 -317 -3 -151 -10 -282 -15
-292 -7 -13 -3 -20 17 -29 61 -28 73 -117 23 -173 -20 -23 -32 -48 -33 -68 0
-18 -2 -94 -3 -170 -2 -137 -2 -138 -24 -135 -20 3 -24 11 -31 68 -4 36 -6
112 -3 168 l5 104 -40 37 c-33 32 -39 44 -39 79 0 32 6 47 31 71 17 17 36 31
42 31 9 0 11 75 9 297 -2 248 -5 299 -17 306 -23 13 -47 67 -41 91 3 13 19 37
36 54 29 31 30 34 30 134 0 57 3 112 6 124 4 17 -3 26 -39 47 -24 15 -59 43
-76 63 l-33 37 -103 -52 c-97 -49 -105 -52 -141 -42 -22 6 -52 19 -67 30 -29
19 -29 19 -70 -5 -23 -12 -69 -31 -104 -40 -49 -13 -63 -21 -63 -36 0 -33 -29
-77 -61 -94 -23 -12 -29 -19 -22 -32 10 -21 10 -152 -1 -382 -9 -186 1 -374
30 -572 9 -59 14 -114 10 -123 -6 -18 -42 -20 -52 -3 -10 15 -28 156 -49 384
-16 170 -16 195 -1 428 10 136 20 254 22 260 5 13 -59 76 -77 76 -5 0 -50 -24
-99 -54 -50 -29 -155 -84 -235 -122 -131 -62 -145 -72 -151 -99 -11 -53 -32
-81 -73 -100 -46 -20 -80 -12 -126 31 -45 41 -29 149 27 188 32 23 104 20 139
-5 l29 -20 58 27 c70 34 112 62 112 75 0 6 -4 8 -9 4 -6 -3 -9 3 -8 14 0 11 5
17 9 15 4 -3 8 0 8 6 0 6 4 9 9 6 5 -3 7 -15 4 -26 -6 -24 -13 -26 162 53 85
38 121 59 123 73 12 64 61 114 110 114 15 0 21 10 26 43 7 44 65 236 98 325
14 38 25 52 39 52 27 0 25 -32 -12 -159 -48 -169 -71 -235 -86 -252 -12 -15
-11 -19 11 -37 l26 -20 104 30 104 30 6 40 c4 24 19 52 40 75 30 33 39 37 94
41 l60 4 26 -38 c14 -22 30 -53 36 -70 11 -31 12 -32 41 -17 16 8 36 13 43 10
9 -4 16 9 23 38 l10 43 -134 134 c-73 73 -145 150 -159 170 -26 37 -25 62 2
56 21 -5 314 -299 314 -315 0 -11 6 -10 26 6 14 11 40 23 58 26 l31 6 -3 69
-4 68 -166 56 c-92 31 -178 65 -192 76 -23 18 -24 20 -9 35 15 16 30 12 199
-45 100 -34 183 -60 185 -58 2 2 17 89 34 193 28 181 50 289 66 328 4 9 5 17
2 17 -18 0 -108 -41 -275 -124 -107 -53 -200 -96 -208 -96 -31 0 8 40 94 96
107 71 110 73 78 67 -36 -7 -34 14 9 73 19 27 49 70 66 97 18 26 36 47 41 47
5 0 6 6 3 13 -4 6 0 4 8 -5 17 -21 37 -24 37 -5 1 6 7 1 14 -12 10 -18 15 -21
20 -10 5 11 7 11 12 2 3 -7 14 -13 25 -13 10 0 18 -6 16 -12 -1 -7 4 -12 12
-10 12 3 12 1 0 -15 -19 -24 -31 -33 -40 -27 -4 2 -9 -3 -13 -11 -8 -21 -1
-19 54 17 l50 32 21 96 c29 131 86 347 115 438 24 76 57 208 68 272 6 35 6 35
-13 15 -41 -41 -405 -582 -660 -979 -24 -38 -57 -84 -73 -101 l-28 -33 20 -43
c91 -200 -134 -372 -280 -213 -38 41 -40 47 -40 105 0 72 18 108 73 146 44 30
127 42 177 25 28 -10 31 -9 26 6 -8 26 15 65 240 405 113 169 233 351 268 405
82 127 191 262 249 309 49 40 60 63 29 63 -34 0 -347 -213 -504 -344 l-98 -81
6 -46 c11 -83 -51 -159 -130 -159 -49 0 -118 39 -135 77 -27 59 -6 142 45 182
31 25 119 29 148 8 16 -12 24 -8 66 33 26 26 96 80 156 120 59 40 142 98 183
128 42 30 97 65 124 78 126 64 -18 23 -255 -72 -298 -120 -541 -235 -553 -261
-5 -12 -27 -30 -48 -39 -47 -22 -139 -130 -232 -274 -116 -180 -128 -197 -147
-209 -10 -6 -23 -9 -28 -6 -26 16 -4 61 127 268 52 82 93 150 91 153 -3 2 -31
-12 -64 -32 -87 -53 -137 -77 -264 -128 -127 -51 -140 -54 -140 -28 0 30 22
50 83 77 32 14 56 29 53 34 -6 10 36 55 80 87 30 21 66 36 94 39 9 0 26 10 37
20 40 37 58 50 68 51 30 2 94 26 105 39 16 19 31 19 24 0 -4 -8 -3 -15 1 -15
19 0 99 57 121 86 38 49 127 72 110 28 -10 -25 27 -15 119 32 50 25 142 65
205 90 63 25 117 48 120 51 3 3 -3 3 -12 0 -11 -4 -18 -1 -18 6 -1 7 -6 5 -14
-6 -11 -14 -15 -15 -24 -4 -9 11 -1 17 40 30 37 11 55 13 64 6 9 -8 46 2 131
34 65 25 139 48 166 52 37 6 47 11 47 26 0 18 -6 19 -67 14 -137 -12 -370 -47
-445 -66 -42 -10 -92 -19 -110 -19 -33 0 -35 -2 -48 -52 -8 -34 -25 -65 -46
-85 -30 -31 -36 -33 -102 -33 -65 0 -74 3 -116 35 -41 31 -45 32 -51 15 -3
-10 -36 -35 -73 -56 -37 -20 -112 -67 -167 -104 -56 -37 -114 -70 -130 -74
-16 -4 -54 -31 -85 -59 -107 -98 -167 -140 -208 -141 -33 -1 -37 2 -40 25 -3
22 7 36 50 72 63 53 161 131 238 188 75 55 305 184 357 199 40 12 41 14 48 66
8 63 34 100 89 125 76 35 152 22 205 -35 l24 -25 38 20 c87 44 417 99 594 99
50 0 60 3 92 35 20 19 50 39 67 44 53 15 155 12 193 -5z m-2580 -118 c135 -65
199 -147 224 -289 23 -127 -18 -246 -120 -348 -67 -66 -120 -96 -206 -114
-158 -33 -333 61 -411 222 -85 174 -1 433 168 519 64 32 108 42 198 43 67 1
84 -3 147 -33z m702 8 c45 -58 13 -134 -56 -134 -45 0 -73 30 -73 77 0 76 85
113 129 57z m3208 -141 c41 -19 79 -73 87 -123 4 -22 -1 -54 -12 -85 -14 -39
-27 -55 -58 -72 -84 -48 -199 -16 -241 67 -61 119 5 230 135 230 30 0 70 -7
89 -17z m-2167 -113 c-31 -24 -80 -42 -80 -30 0 11 32 29 69 41 38 11 38 10
11 -11z m1471 -143 c43 -29 59 -60 59 -120 0 -40 -5 -53 -34 -84 -32 -35 -37
-37 -90 -36 -65 2 -98 19 -126 66 -36 58 -20 132 36 176 37 29 110 28 155 -2z
m910 -45 c140 -96 227 -164 240 -189 10 -19 9 -26 -6 -43 -25 -27 -44 -25 -85
8 -19 16 -90 66 -158 112 -68 46 -128 92 -133 102 -13 24 13 68 39 68 10 0 56
-26 103 -58z m-3576 -235 c86 -49 111 -167 53 -255 -30 -45 -99 -82 -153 -82
-75 0 -175 102 -175 177 0 38 23 98 48 127 49 55 159 71 227 33z m4055 0 c92
-47 123 -166 64 -249 -47 -67 -76 -83 -148 -83 -52 0 -70 5 -105 28 -69 46
-99 142 -70 225 11 31 59 75 101 92 42 16 111 11 158 -13z m-3202 -58 c7 -23
12 -43 10 -44 -15 -13 -102 -43 -135 -48 -52 -6 -57 10 -15 43 69 54 117 89
122 89 3 1 11 -18 18 -40z m1472 -85 c0 -15 4 -23 11 -19 6 4 9 1 7 -7 -1 -7
13 -30 32 -52 19 -21 35 -47 35 -57 0 -10 8 -24 18 -31 9 -7 18 -23 20 -36 2
-13 10 -28 18 -33 8 -5 10 -9 6 -9 -5 0 10 -17 33 -38 40 -36 41 -39 25 -55
-22 -23 -51 -21 -75 3 -11 11 -27 20 -35 20 -8 0 -15 5 -15 10 0 6 -9 10 -20
10 -11 0 -20 3 -20 6 0 13 42 74 51 74 19 0 8 36 -13 45 -13 6 -22 16 -21 22
1 6 -13 14 -32 17 -39 8 -46 22 -47 98 0 29 -6 59 -12 67 -9 12 -8 12 12 2 14
-7 22 -21 22 -37z m2468 34 c7 -7 12 -40 12 -80 l0 -68 -39 0 c-54 0 -65 17
-57 87 4 32 12 61 19 65 18 12 51 10 65 -4z m200 -10 c3 -15 -4 -18 -32 -18
l-36 0 0 -65 c0 -36 -4 -65 -10 -65 -18 0 -28 35 -23 83 5 45 5 47 -21 47 -25
0 -35 18 -19 34 4 4 37 6 72 4 53 -2 66 -6 69 -20z m-1962 -41 c2 -2 -1 -17
-7 -33 -14 -36 2 -84 31 -91 11 -3 20 -9 20 -14 0 -5 12 -9 28 -9 15 0 63 -5
107 -11 70 -10 84 -15 108 -42 18 -21 27 -42 27 -65 0 -19 5 -52 12 -73 6 -22
8 -42 5 -45 -3 -4 -71 36 -149 88 -79 52 -160 105 -181 117 -21 13 -44 36 -52
51 -18 34 -20 111 -4 127 10 10 45 10 55 0z m-2126 -15 c0 -24 -35 -63 -150
-167 -139 -127 -260 -203 -260 -164 0 38 65 104 195 199 33 24 85 68 117 97
59 54 98 68 98 35z m2442 6 c34 -28 118 -163 118 -191 0 -26 -29 -27 -59 -1
-36 30 -91 136 -91 176 0 31 8 35 32 16z m-3007 -58 c11 -18 -26 -58 -83 -89
-110 -59 -326 -216 -354 -257 -35 -50 -74 -170 -83 -258 -8 -69 -8 -69 13 -54
12 8 73 63 137 122 115 106 147 123 153 81 3 -27 -169 -227 -208 -240 -16 -6
-32 -14 -36 -18 -4 -4 -17 -7 -28 -7 -12 0 -45 -18 -74 -40 -29 -22 -57 -40
-63 -40 -12 0 -12 3 19 125 11 44 23 103 26 130 l7 50 -31 -35 c-17 -19 -83
-107 -147 -194 -145 -198 -221 -341 -314 -586 l-28 -75 27 35 c56 72 265 289
273 284 18 -11 8 -56 -20 -97 -41 -60 -291 -317 -308 -317 -28 0 -31 43 -7
130 67 251 182 476 355 696 113 145 221 301 249 364 34 76 57 114 73 124 20
13 28 5 36 -34 l6 -31 110 76 c61 42 121 87 135 100 26 24 112 63 142 64 9 1
20 -3 23 -9z m-575 -75 c11 -13 10 -22 -2 -48 -20 -42 -165 -197 -184 -197 -8
0 -19 11 -25 24 -15 33 6 69 94 160 76 78 95 88 117 61z m4440 -61 c51 -48 85
-106 76 -130 -10 -27 -61 -16 -101 23 -66 64 -89 115 -63 141 20 20 37 14 88
-34z m-5169 18 c27 -23 30 -75 6 -99 -21 -22 -72 -21 -97 2 -24 22 -26 71 -3
97 21 23 64 23 94 0z m1311 -62 c40 -11 98 -78 98 -113 0 -104 -127 -215 -218
-192 -38 10 -89 66 -97 108 -17 88 38 177 118 195 57 13 57 13 99 2z m3309
-26 c38 -35 59 -81 59 -127 0 -45 -44 -130 -76 -147 -32 -18 -94 -16 -132 4
-34 18 -90 78 -103 113 -39 102 42 197 164 190 47 -3 63 -8 88 -33z m-4148
-88 c47 -19 85 -68 92 -120 6 -35 2 -53 -19 -95 -36 -71 -74 -93 -149 -88 -64
4 -98 23 -134 77 -26 37 -28 66 -12 124 25 89 134 139 222 102z m4926 -1 c119
-61 125 -229 10 -287 -55 -29 -128 -24 -177 12 -23 16 -48 40 -56 52 -23 36
-29 98 -13 143 26 74 160 120 236 80z m-4702 -97 c-3 -8 -6 -5 -6 6 -1 11 2
17 5 13 3 -3 4 -12 1 -19z m3659 -16 c-8 -25 -169 -92 -281 -116 -28 -6 -30
-9 -27 -49 3 -50 -22 -106 -58 -125 -42 -22 -143 -10 -190 23 -53 37 -71 67
-77 131 l-6 54 50 50 c44 44 55 50 92 50 57 0 100 -20 139 -64 l32 -36 37 19
c66 33 277 101 286 92 5 -5 6 -18 3 -29z m-2788 -69 c65 -41 82 -58 82 -76 0
-13 -3 -26 -6 -30 -17 -17 -212 111 -235 154 -6 11 -8 27 -5 36 7 16 9 15 164
-84z m3190 5 c26 -24 41 -36 35 -27 -7 9 -9 20 -5 24 4 5 2 5 -5 1 -13 -7 -39
31 -29 42 3 3 6 0 6 -6 0 -7 9 -12 20 -12 10 0 27 -11 37 -25 10 -14 26 -35
36 -47 9 -11 17 -27 17 -35 0 -7 5 -12 12 -10 7 1 12 -4 13 -10 0 -7 12 -24
26 -37 27 -25 56 -83 46 -92 -14 -15 -59 17 -168 118 -108 100 -132 132 -112
151 12 13 23 7 71 -35z m-2287 -2 c-6 -8 -26 -20 -44 -27 -18 -7 -34 -15 -37
-18 -19 -22 -120 -52 -120 -37 0 9 143 75 178 82 8 1 16 5 20 8 11 12 14 5 3
-8z m-1293 -73 c2 -17 -8 -61 -21 -99 -30 -88 -81 -293 -74 -300 3 -3 24 4 48
16 23 12 58 28 78 35 20 7 110 46 201 88 91 41 183 80 205 86 55 15 68 -1 30
-38 -28 -28 -80 -52 -400 -188 -146 -62 -190 -91 -210 -136 -7 -18 -28 -133
-47 -256 -18 -123 -38 -226 -43 -228 -6 -2 -19 3 -30 10 -18 14 -18 19 8 188
14 96 28 200 31 232 l6 58 -52 -7 c-29 -4 -59 -8 -66 -9 -7 -1 -24 -18 -37
-38 -29 -41 -68 -53 -143 -43 -89 12 -136 71 -135 171 1 75 21 122 68 154 51
34 110 38 164 9 60 -31 83 -65 89 -133 2 -30 5 -55 6 -55 22 0 124 52 137 70
10 14 34 86 53 160 19 75 44 159 55 188 40 101 73 128 79 65z m3232 -5 c0 -10
-13 -51 -30 -90 -16 -38 -30 -77 -30 -85 0 -9 -7 -21 -16 -28 -9 -6 -38 -52
-64 -101 -43 -81 -50 -89 -79 -92 -45 -5 -41 17 24 122 l54 90 -67 23 c-61 21
-112 59 -112 84 0 12 7 11 33 -3 28 -15 67 -19 67 -7 0 5 -10 9 -22 9 -21 1
-20 2 7 17 29 16 118 43 143 43 18 0 15 -23 -7 -47 -11 -12 -17 -23 -14 -27 3
-3 -2 -8 -11 -12 -9 -3 -13 -10 -10 -15 8 -13 54 48 83 109 19 41 27 49 38 41
7 -6 13 -20 13 -31z m-1572 -15 c2 -28 8 -43 17 -43 13 0 17 8 29 63 5 21 12
27 34 27 26 0 27 -2 24 -40 -4 -37 -2 -40 20 -40 35 0 92 -41 96 -69 2 -13 -2
-36 -9 -52 -10 -26 -9 -32 11 -54 57 -61 3 -185 -82 -185 -34 0 -38 -7 -22
-39 17 -35 3 -84 -29 -98 -20 -9 -21 -17 -22 -124 l0 -114 -29 -3 -29 -4 6
116 7 115 -46 37 c-36 29 -44 42 -39 58 3 12 9 29 12 39 4 14 -1 17 -30 17
-20 0 -43 7 -51 16 -22 21 -20 69 3 85 15 11 20 31 24 97 5 81 5 82 -19 82
-19 0 -24 5 -24 23 0 29 31 60 56 55 17 -3 24 9 40 70 2 8 14 12 26 10 19 -2
24 -10 26 -45z m1830 -103 c73 -226 71 -223 96 -215 99 30 129 36 140 25 17
-17 -5 -42 -63 -72 -89 -44 -88 -43 -63 -150 39 -169 57 -277 46 -288 -32 -32
-56 29 -100 258 -8 40 -19 82 -24 92 -17 32 -53 34 -106 7 -64 -32 -282 -100
-300 -93 -22 8 -17 34 10 52 14 8 87 37 164 64 77 26 149 53 160 59 42 23 42
39 -4 201 -45 157 -49 204 -16 198 12 -2 29 -40 60 -138z m-4307 29 c7 -15 2
-38 -25 -101 -100 -238 -117 -282 -140 -359 -13 -46 -32 -122 -41 -169 -18
-87 -33 -127 -60 -153 -13 -14 -11 -18 20 -37 74 -46 101 -165 55 -243 -25
-42 -93 -87 -132 -87 -70 0 -130 40 -160 109 -45 98 19 216 127 237 28 5 30 8
27 39 -14 117 186 693 269 776 21 21 45 16 60 -12z m5112 14 c77 -87 250 -543
259 -684 3 -43 2 -44 -29 -47 -38 -4 -57 19 -79 98 -31 108 -117 345 -156 430
-22 47 -48 106 -59 133 -19 47 -19 47 1 67 25 25 42 25 63 3z m-1853 -27 c0
-11 -19 -15 -25 -6 -3 5 1 10 9 10 9 0 16 -2 16 -4z m-35 -26 c3 -5 1 -10 -4
-10 -6 0 -11 5 -11 10 0 6 2 10 4 10 3 0 8 -4 11 -10z m-4031 -59 c43 -48 -12
-136 -71 -115 -50 17 -57 99 -11 122 35 16 63 14 82 -7z m6551 -17 c30 -20 49
-82 36 -117 -13 -32 -58 -67 -88 -67 -59 0 -109 49 -104 105 5 78 92 121 156
79z m-2066 -87 c39 -79 44 -112 16 -112 -26 0 -73 86 -82 150 -6 46 -5 47 15
36 11 -6 34 -39 51 -74z m453 57 c15 -8 41 -14 57 -14 24 0 34 -7 46 -30 8
-16 15 -32 15 -36 0 -22 -175 52 -207 89 -18 20 -17 20 22 13 21 -4 52 -14 67
-22z m-4586 -59 c31 -13 35 -18 32 -47 -6 -59 -91 -78 -119 -27 -20 37 3 78
49 88 1 1 19 -6 38 -14z m6034 -25 c0 -15 -41 -38 -93 -51 -84 -21 -74 4 18
43 46 19 75 23 75 8z m-1753 -111 c66 -41 97 -152 62 -224 -8 -18 -32 -39 -58
-52 -24 -12 -45 -23 -46 -25 -2 -2 1 -28 7 -58 5 -30 12 -164 16 -298 l7 -243
27 -17 c25 -15 30 -15 61 0 48 23 67 5 33 -31 -25 -28 -41 -79 -28 -96 4 -5
68 -41 142 -79 74 -38 150 -80 167 -93 38 -28 59 -61 46 -74 -11 -11 -308 141
-344 175 l-24 23 -47 -20 c-43 -17 -47 -22 -42 -46 3 -15 1 -110 -5 -212 -19
-312 -20 -319 -66 -285 -18 13 -18 19 -2 212 27 319 28 311 -10 351 -27 28
-33 42 -33 80 0 40 5 50 36 80 l37 34 -9 202 c-5 111 -9 245 -8 297 l1 96 -40
24 c-60 38 -92 93 -90 153 3 62 40 124 81 133 15 3 32 7 37 9 27 9 61 3 92
-16z m-2755 -20 c38 -17 68 -70 68 -118 0 -36 -6 -49 -34 -77 -29 -29 -41 -34
-79 -34 -38 0 -51 6 -92 42 -44 39 -47 44 -42 81 12 91 100 143 179 106z
m3602 -37 c-18 -75 -116 -329 -132 -342 -18 -14 -17 -15 12 -35 38 -25 58 -77
50 -130 -6 -47 -16 -61 -64 -85 l-36 -18 -3 -224 c-3 -247 -5 -268 -31 -268
-40 0 -43 20 -35 244 4 117 10 218 14 223 3 5 15 15 26 21 19 11 19 11 2 12
-47 0 -107 71 -107 125 0 16 -5 25 -16 25 -9 0 -39 13 -65 30 -27 16 -109 62
-182 101 -155 84 -197 113 -197 139 0 18 2 18 42 4 85 -30 366 -193 403 -234
18 -20 18 -20 52 20 24 28 43 40 61 40 25 0 29 7 55 88 35 109 91 261 106 290
10 18 15 20 32 12 15 -8 18 -17 13 -38z m-129 18 c3 -5 1 -10 -4 -10 -6 0 -11
5 -11 10 0 6 2 10 4 10 3 0 8 -4 11 -10z m-2166 -49 c8 -5 11 -16 8 -24 -8
-22 -132 -88 -152 -81 -27 11 -13 46 33 81 43 33 83 41 111 24z m928 -80 c19
-16 29 -18 47 -10 18 9 35 5 87 -19 100 -45 129 -94 88 -146 l-21 -27 26 -28
c44 -45 30 -103 -35 -146 -21 -14 -43 -25 -48 -25 -5 0 -23 -12 -40 -26 -33
-27 -51 -25 -51 7 0 10 -7 19 -15 19 -8 0 -15 -7 -15 -15 0 -9 -12 -20 -27
-26 -23 -9 -30 -7 -44 10 -12 14 -29 21 -54 21 -36 0 -37 1 -30 27 8 33 5 30
35 41 23 9 24 14 26 97 1 48 5 102 9 121 6 34 5 34 -30 34 l-36 0 3 43 c3 42
3 42 39 39 26 -2 38 2 43 13 7 20 13 19 43 -4z m-3067 -127 c-7 -33 -25 -99
-40 -149 -16 -49 -42 -144 -59 -210 -35 -134 -57 -191 -78 -199 -29 -12 -25
33 21 223 52 216 98 365 122 400 15 20 18 21 31 8 13 -12 13 -24 3 -73z m240
-4 c-9 -6 -9 -9 1 -13 8 -3 4 -4 -8 -4 -13 1 -23 3 -23 5 0 9 26 29 34 25 4
-3 3 -9 -4 -13z m-123 -75 c-9 -19 -21 -35 -27 -35 -13 0 -13 56 1 82 10 19
12 19 27 4 15 -14 14 -19 -1 -51z m2773 35 c0 -5 -5 -10 -11 -10 -5 0 -7 5 -4
10 3 6 8 10 11 10 2 0 4 -4 4 -10z m-830 -56 c49 -45 64 -84 40 -99 -28 -18
-146 98 -133 131 10 26 43 14 93 -32z m1625 -40 c40 -49 54 -94 28 -94 -29 0
-55 22 -74 63 -39 87 -13 104 46 31z m1514 35 c120 -25 160 -165 74 -260 -66
-73 -170 -74 -234 -2 -57 65 -64 121 -23 190 27 47 75 83 111 83 12 0 45 -5
72 -11z m-2867 -39 c23 -7 52 -28 80 -59 68 -75 85 -158 49 -236 -34 -73 -85
-105 -172 -105 -211 0 -277 266 -95 384 43 28 79 32 138 16z m2118 0 c0 -5 -2
-10 -4 -10 -3 0 -8 5 -11 10 -3 6 -1 10 4 10 6 0 11 -4 11 -10z m122 -22 c23
-26 33 -83 22 -127 -8 -33 -12 -36 -51 -39 -58 -5 -89 24 -98 90 -4 30 -3 60
5 77 11 27 14 28 58 24 30 -3 53 -12 64 -25z m-5761 6 c29 -14 59 -65 59 -98
0 -27 -50 -75 -86 -82 -43 -8 -78 14 -101 61 -15 32 -15 38 -1 68 9 19 31 41
50 50 41 20 42 21 79 1z m7060 -7 c44 -34 49 -83 13 -126 -40 -48 -90 -42
-124 14 -14 23 -19 42 -14 59 13 53 86 83 125 53z m-5720 -37 c10 -6 26 -24
34 -40 31 -60 -28 -170 -90 -170 -57 0 -115 58 -115 116 0 41 70 104 116 104
19 0 44 -5 55 -10z m1314 -12 c63 -22 92 -38 150 -83 33 -26 77 -56 98 -66 41
-21 42 -24 24 -56 -12 -22 -13 -21 -77 34 -86 74 -152 103 -243 110 -63 4 -79
2 -127 -21 -54 -25 -78 -27 -47 -3 9 6 18 23 19 37 5 37 16 50 44 50 13 0 24
5 24 11 0 12 86 4 135 -13z m2388 -80 c20 -10 48 -37 62 -59 l26 -40 31 26
c32 27 87 58 126 69 34 11 29 -27 -9 -58 -45 -38 -117 -78 -128 -72 -5 4 -21
-18 -34 -48 -28 -61 -47 -75 -116 -83 -60 -7 -101 17 -131 77 -35 69 -23 131
36 186 39 37 66 38 137 2z m-2633 -5 c0 -14 -15 -29 -32 -36 -19 -7 -52 19
-43 34 7 11 75 12 75 2z m3234 -52 c28 -21 69 -50 91 -63 50 -31 68 -52 63
-75 -6 -34 -36 -23 -136 51 -108 80 -117 89 -108 111 9 24 36 17 90 -24z
m-3058 -46 c3 -14 4 -39 0 -56 -6 -29 -5 -30 27 -27 31 3 32 5 35 51 3 41 6
47 25 47 40 0 50 -14 43 -59 -6 -37 -4 -41 14 -41 29 0 76 -26 94 -52 24 -34
20 -85 -10 -121 l-26 -31 29 -14 c36 -19 43 -30 43 -71 0 -70 -62 -134 -143
-146 l-47 -7 0 -50 c0 -48 -1 -49 -27 -46 -23 2 -29 9 -31 33 -5 63 -12 75
-37 75 -22 0 -24 -4 -27 -52 -3 -49 -5 -53 -28 -53 -23 0 -25 4 -28 56 l-3 56
-54 -5 -55 -4 0 35 c0 38 12 47 59 47 l28 0 2 145 1 145 -29 0 c-32 0 -51 22
-51 60 0 20 3 21 59 14 59 -6 60 -6 67 20 3 14 3 37 0 51 -6 23 -4 25 29 25
29 0 36 -4 41 -25z m3635 15 c27 -15 24 -26 -15 -60 -18 -16 -53 -55 -76 -85
-25 -32 -49 -54 -56 -51 -10 4 -11 -1 -4 -20 6 -14 10 -49 10 -79 0 -63 -24
-99 -92 -134 l-43 -23 -52 33 c-88 56 -124 156 -88 243 38 89 156 100 230 20
l22 -24 6 28 c5 23 119 162 134 162 2 0 13 -5 24 -10z m20 -149 c-19 -115 -69
-252 -136 -376 -89 -163 -146 -289 -159 -355 -9 -43 -16 -57 -36 -67 -17 -8
-50 -55 -98 -141 -40 -71 -86 -148 -103 -172 l-31 -43 -20 21 -21 20 89 163
c49 90 94 184 101 209 16 59 32 88 54 95 34 11 52 96 47 217 -6 111 2 139 29
103 15 -22 17 -121 3 -162 l-10 -28 18 24 c11 13 47 71 82 129 53 87 71 131
111 262 26 87 53 168 59 181 12 21 13 21 22 4 7 -12 7 -39 -1 -84z m143 48
c25 -127 -29 -600 -95 -827 -81 -284 -250 -647 -319 -690 -19 -12 -19 -14 -5
-42 23 -44 19 -119 -8 -170 -34 -65 -67 -85 -136 -84 -53 1 -60 -2 -74 -26 -9
-14 -41 -50 -71 -79 -47 -44 -54 -55 -46 -71 17 -33 12 -120 -11 -167 -42 -86
-133 -116 -226 -74 -32 15 -48 31 -67 70 -31 61 -33 111 -5 168 36 74 114 106
214 89 39 -6 41 -6 89 54 28 33 52 60 55 60 3 0 14 7 24 14 17 13 17 16 3 45
-23 43 -20 89 8 141 32 61 60 79 131 86 l60 7 83 171 c170 352 243 583 267
841 4 39 13 126 21 195 8 69 14 152 14 186 0 113 8 130 66 133 16 1 23 -6 28
-30z m-5553 -56 c32 -31 59 -62 59 -70 0 -17 15 -17 30 2 33 40 148 21 190
-32 22 -29 27 -94 9 -140 -26 -69 -100 -106 -161 -80 -57 24 -72 50 -76 130
-4 78 -12 91 -84 148 l-36 29 18 -47 c11 -27 31 -90 45 -142 14 -53 41 -119
60 -150 19 -31 35 -63 35 -70 0 -8 -12 -29 -26 -48 -21 -27 -29 -32 -40 -22
-8 6 -14 28 -14 49 0 21 -11 63 -25 93 -38 86 -67 212 -73 315 -6 114 3 117
89 35z m564 30 c8 -23 -33 -58 -135 -119 -90 -52 -110 -55 -110 -15 0 26 10
34 108 89 59 33 112 61 118 61 7 1 15 -7 19 -16z m3774 -108 c28 -47 51 -88
51 -90 0 -3 16 -38 35 -77 38 -77 39 -101 3 -96 -18 2 -36 27 -76 103 -85 158
-101 197 -91 223 5 12 13 22 18 22 5 0 32 -38 60 -85z m-4483 -50 c7 -66 12
-155 13 -197 1 -74 0 -78 -23 -84 -66 -16 -71 -2 -82 228 -8 166 -3 181 50
176 l31 -3 11 -120z m2810 33 c7 -40 13 -88 13 -105 1 -28 -2 -33 -23 -33 -13
0 -27 8 -30 17 -7 17 15 206 23 198 2 -3 10 -37 17 -77z m-1577 46 c2 -2 -1
-16 -8 -30 -14 -31 -7 -44 24 -44 43 0 88 -88 66 -129 -9 -16 -8 -26 3 -44 31
-46 -13 -134 -81 -163 -40 -17 -146 -17 -192 0 -49 18 -58 36 -42 88 7 24 17
72 23 107 10 61 9 66 -11 82 -25 20 -28 54 -5 63 9 3 28 6 43 6 23 0 30 6 37
31 12 41 28 42 32 2 4 -44 22 -42 22 1 0 28 4 35 23 39 21 4 57 -1 66 -9z
m-375 -20 c10 -26 7 -288 -4 -304 -7 -12 -13 -12 -27 -4 -16 10 -18 30 -21
155 -1 79 0 149 2 156 7 18 43 16 50 -3z m2716 -39 c8 -9 10 -28 6 -51 l-7
-35 38 3 c37 3 38 4 35 41 -3 27 1 39 13 43 23 9 36 -7 37 -46 1 -17 6 -33 12
-35 6 -2 24 -6 40 -10 72 -16 108 -98 66 -152 l-19 -25 29 -25 c34 -28 39 -66
16 -112 -19 -36 -57 -61 -109 -69 -41 -7 -42 -9 -47 -52 -4 -40 -8 -45 -30
-45 -23 0 -25 4 -28 53 -3 48 -5 52 -28 52 -22 0 -24 -4 -24 -50 l0 -50 -35 0
-35 0 0 51 0 51 -50 -7 c-48 -7 -50 -6 -50 17 0 12 3 33 6 46 6 19 11 22 40
16 l34 -6 0 132 0 133 -40 -7 -40 -6 0 41 0 41 50 -7 c48 -7 50 -6 50 17 0 46
12 68 35 68 12 0 28 -7 35 -15z m-1036 -91 c9 -8 19 -27 22 -41 14 -53 -75
-95 -118 -56 -26 23 -24 78 4 97 29 20 72 20 92 0z m586 -2 c45 -36 -1 -122
-65 -122 -28 0 -37 6 -50 30 -20 38 -19 69 2 92 21 24 84 24 113 0z m2040 -47
c7 -9 11 -17 9 -19 -26 -21 -262 -176 -269 -176 -5 0 -12 9 -15 21 -11 32 -3
39 210 175 27 18 50 17 65 -1z m-4562 -117 c95 -70 109 -86 98 -114 -6 -15 -9
-15 -34 1 -76 49 -225 160 -229 172 -3 7 0 20 7 28 15 18 17 17 158 -87z
m5785 68 c18 -7 45 -28 60 -45 90 -107 -3 -266 -134 -231 -41 11 -95 66 -111
111 -8 23 -13 26 -26 18 -12 -7 -77 -5 -217 8 -179 16 -200 20 -203 37 -4 17
5 18 190 12 106 -4 207 -9 224 -12 27 -4 33 -1 44 25 15 37 50 70 86 81 41 12
51 12 87 -4z m-876 -145 c-4 -64 -13 -143 -22 -176 -9 -33 -22 -92 -30 -132
-15 -79 -25 -102 -89 -201 -24 -37 -73 -125 -110 -196 -36 -71 -72 -136 -80
-145 -7 -9 -17 -26 -20 -38 -4 -13 -10 -23 -14 -23 -4 0 -16 -3 -28 -6 -20 -5
-21 -1 -27 76 -8 96 -2 110 83 215 84 104 185 244 208 291 16 32 22 68 27 175
6 124 17 189 35 214 4 6 11 21 15 35 4 14 15 32 24 41 28 28 34 -4 28 -130z
m-6179 123 c30 -6 55 -61 40 -87 -7 -14 -5 -24 8 -38 40 -44 -33 -103 -122
-97 l-44 3 -3 115 -2 115 50 -3 c28 -1 60 -5 73 -8z m3430 -49 l-6 -45 34 0
c34 0 34 0 34 46 0 45 0 45 33 42 31 -3 32 -4 31 -50 0 -46 1 -48 32 -54 72
-13 100 -94 53 -157 -17 -24 -19 -32 -9 -35 8 -3 25 -16 38 -29 19 -19 22 -30
17 -56 -4 -18 -12 -40 -17 -50 -12 -23 -96 -77 -120 -77 -15 0 -18 -8 -18 -46
l0 -45 -37 3 c-40 3 -42 6 -29 66 7 30 6 32 -18 32 -24 0 -26 -3 -26 -46 0
-45 0 -45 -32 -42 -30 3 -33 7 -36 38 -4 43 -16 51 -64 43 l-38 -6 0 47 c0 44
1 46 29 46 36 0 40 20 40 168 l0 102 -34 0 c-34 0 -35 1 -35 38 l0 39 56 -5
c57 -5 57 -5 50 21 -3 14 -9 32 -12 41 -5 13 2 16 41 16 l48 0 -5 -45z m2039
-21 c38 -28 73 -99 73 -150 0 -76 -91 -174 -163 -174 -68 0 -147 66 -167 141
-20 71 20 176 74 200 38 16 152 6 183 -17z m-4488 -16 c5 -13 18 -58 30 -101
13 -46 68 -173 136 -309 63 -127 115 -241 115 -254 0 -35 -27 -37 -51 -3 -11
16 -75 141 -142 277 -124 254 -138 297 -123 376 8 41 22 46 35 14z m600 -16
c77 -39 99 -116 57 -199 -34 -67 -67 -93 -121 -93 -88 0 -149 74 -142 173 5
90 51 137 132 137 22 0 55 -8 74 -18z m-828 -36 c13 -8 36 -34 51 -57 50 -74
34 -175 -37 -238 -29 -25 -31 -30 -15 -34 11 -3 26 -27 39 -63 12 -33 40 -109
64 -170 l42 -110 50 -20 c81 -31 112 -109 83 -206 -11 -37 -10 -40 24 -76 20
-20 69 -84 109 -142 40 -58 92 -129 116 -158 44 -55 52 -79 31 -100 -22 -22
-54 -12 -95 31 -75 79 -220 282 -243 342 -8 22 -15 25 -56 25 -42 0 -51 5 -90
44 -44 44 -50 62 -45 131 3 35 16 61 44 93 12 12 15 22 9 22 -18 0 -68 84
-102 172 -31 80 -39 155 -18 176 9 9 0 12 -40 12 -69 0 -111 19 -150 66 -69
83 -48 197 48 262 30 21 44 23 97 19 33 -2 71 -12 84 -21z m4276 -36 c18 -10
39 -30 48 -44 15 -22 15 -27 0 -55 -33 -65 -113 -80 -165 -31 -28 27 -32 35
-27 67 13 76 77 104 144 63z m-2307 -45 c0 -2 -24 -20 -52 -38 -80 -51 -132
-98 -194 -174 -31 -37 -61 -69 -68 -71 -7 -1 -20 6 -29 16 -16 17 -12 23 74
117 95 106 109 115 204 138 33 8 61 15 63 16 1 0 2 -1 2 -4z m3021 -28 c8 -7
24 -24 33 -39 18 -27 18 -29 -5 -75 -30 -58 -49 -72 -82 -54 -29 15 -57 61
-57 92 0 12 11 37 26 56 26 35 57 42 85 20z m-4502 -53 c12 -15 21 -23 21 -18
0 17 20 -21 20 -39 0 -19 -54 -57 -82 -57 -9 0 -30 12 -47 26 -36 30 -43 86
-13 103 33 20 79 13 101 -15z m3961 -34 c0 -23 -10 -37 -49 -69 -92 -72 -309
-211 -330 -211 -61 0 5 65 202 199 75 51 140 97 143 102 13 21 34 8 34 -21z
m-3442 -29 c206 -118 322 -194 322 -210 0 -44 -21 -39 -138 32 -265 160 -299
186 -275 210 11 12 22 8 91 -32z m1132 -61 c9 -17 5 -23 -37 -50 -27 -16 -82
-44 -123 -61 -41 -17 -115 -49 -164 -71 -70 -31 -91 -36 -97 -26 -16 24 -9 37
29 58 38 22 361 168 374 169 4 1 12 -8 18 -19z m-1404 -5 c7 -17 -20 -183 -43
-262 -15 -55 -34 -68 -52 -35 -10 20 35 248 57 290 15 26 30 29 38 7z m3814
-25 c0 -25 -34 -114 -104 -269 -31 -68 -54 -126 -52 -128 2 -3 36 -13 75 -23
79 -20 101 -33 101 -60 0 -29 -20 -29 -110 1 -47 16 -86 29 -87 29 -1 0 -10
-14 -19 -31 -15 -30 -15 -32 10 -58 60 -63 12 -173 -80 -187 -38 -6 -45 -3
-80 29 -33 30 -39 41 -39 76 0 66 33 99 116 116 18 3 29 13 33 31 4 15 5 28 3
30 -2 3 -28 11 -58 18 -30 8 -80 24 -112 36 -49 18 -57 25 -57 47 0 28 -7 29
105 -10 39 -13 85 -27 102 -30 30 -6 34 -3 52 31 15 30 118 281 152 369 7 20
12 22 29 13 11 -6 20 -19 20 -30z m124 11 c8 -15 27 -91 40 -167 24 -129 25
-140 9 -151 -17 -13 -43 -18 -43 -8 0 2 -11 73 -25 157 -14 84 -25 163 -25
175 0 32 26 29 44 -6z m-4561 -8 c14 -16 45 -53 69 -84 24 -31 78 -98 121
-148 108 -129 112 -136 98 -168 l-12 -27 -100 104 c-103 109 -177 214 -204
289 -24 70 -17 80 28 34z m752 -9 c27 -66 124 -204 142 -204 47 0 95 -23 114
-53 20 -32 22 -95 5 -152 -5 -14 20 -62 89 -170 53 -82 94 -156 93 -164 -2 -7
-13 -20 -25 -28 -21 -14 -23 -13 -41 24 -11 21 -36 52 -55 70 -22 20 -44 56
-61 100 -14 37 -34 81 -44 96 -20 33 -88 63 -96 42 -5 -14 -127 -65 -155 -65
-20 0 -37 32 -26 49 7 12 110 51 135 51 17 0 18 2 4 28 -7 15 -14 51 -14 81 0
46 -8 69 -49 145 -53 100 -76 160 -66 176 13 20 35 9 50 -26z m1590 -116 c50
-51 119 -114 154 -141 l63 -47 -37 -16 c-20 -8 -45 -12 -55 -9 -26 8 -186 180
-217 232 -23 39 -26 73 -6 73 4 0 48 -42 98 -92z m625 69 c0 -18 -67 -98 -172
-204 -90 -92 -90 -92 -114 -75 -13 9 -23 22 -21 29 1 6 63 68 137 137 124 116
170 146 170 113z m-3310 -40 c0 -13 -20 -55 -44 -93 -39 -60 -44 -74 -39 -109
6 -49 -16 -81 -66 -95 -30 -8 -36 -6 -62 20 -32 32 -36 57 -14 99 16 32 33 41
75 41 26 0 35 10 77 80 49 80 73 99 73 57z m1813 9 c68 -28 116 -120 102 -195
-5 -25 -23 -52 -59 -88 -51 -51 -55 -53 -106 -53 -66 0 -118 28 -153 83 -63
97 -40 204 55 250 40 20 118 22 161 3z m2415 -36 c75 -54 98 -136 60 -209 -30
-58 -65 -83 -126 -89 -59 -5 -95 11 -142 64 -31 36 -32 40 -28 110 4 82 15
101 82 133 59 30 105 27 154 -9z m-2703 -220 c0 -31 -4 -35 -40 -46 -78 -22
-105 -26 -105 -14 0 25 110 103 135 96 6 -1 10 -18 10 -36z m590 -52 c147 -74
175 -92 175 -115 0 -31 -36 -20 -199 61 -128 64 -171 91 -171 104 0 45 11 42
195 -50z m1865 57 c0 -18 -12 -34 -42 -55 -64 -46 -298 -162 -314 -156 -10 4
-14 16 -12 31 3 21 28 38 178 114 96 50 178 90 183 90 4 1 7 -10 7 -24z
m-3053 -11 c71 -54 93 -146 54 -227 -34 -70 -64 -92 -121 -90 -187 8 -258 229
-106 325 41 25 134 21 173 -8z m2084 -7 c10 -12 22 -38 28 -58 8 -25 19 -39
34 -43 32 -8 91 -60 86 -75 -3 -9 -20 0 -53 28 -51 44 -66 50 -66 25 0 -9 -15
-31 -34 -50 -28 -28 -42 -34 -76 -34 -34 0 -48 6 -76 34 -38 38 -44 77 -20
124 39 76 135 102 177 49z m2079 -30 c50 -24 70 -63 70 -137 0 -96 -39 -151
-121 -169 -71 -16 -113 -5 -154 41 -44 48 -55 76 -55 134 0 64 39 127 90 147
28 12 135 1 170 -16z m-5270 -38 c0 -25 -56 -158 -76 -180 -20 -22 -18 -26 14
-34 35 -9 87 -41 134 -83 l36 -33 31 29 c18 16 66 50 109 76 42 25 85 52 94
58 22 16 35 3 17 -18 -14 -17 -140 -112 -174 -132 -58 -33 -58 -34 -34 -103
30 -92 24 -213 -15 -284 -70 -127 -261 -190 -409 -135 -106 40 -173 123 -197
246 -14 72 2 154 47 237 48 86 144 147 234 147 48 0 58 10 115 121 54 107 74
130 74 88z m2725 -13 c42 -18 62 -49 77 -119 11 -53 11 -57 -16 -97 -35 -53
-80 -80 -134 -80 -80 0 -146 56 -158 135 -8 58 -1 86 33 120 53 53 130 69 198
41z m1539 -29 c8 -12 7 -26 -3 -49 -7 -18 -26 -69 -42 -113 -16 -44 -41 -106
-56 -137 -30 -64 -25 -79 31 -102 29 -12 33 -11 69 21 48 43 75 53 143 53 149
0 245 -142 189 -278 -45 -105 -175 -155 -265 -101 -88 53 -112 94 -111 192 0
71 0 72 -27 73 -15 1 -44 5 -64 9 -35 7 -38 6 -38 -14 0 -29 -151 -342 -188
-389 -16 -20 -48 -71 -72 -112 -24 -41 -50 -83 -58 -92 -24 -29 4 -22 56 14
26 18 91 66 145 108 176 135 247 182 262 176 26 -10 16 -40 -22 -66 -21 -14
-96 -72 -168 -129 -71 -57 -156 -121 -187 -143 -50 -33 -78 -63 -78 -82 0 -3
19 -6 43 -6 87 0 211 -58 163 -76 -18 -7 -195 31 -209 45 -7 7 -23 -1 -50 -24
-22 -19 -55 -37 -72 -41 -36 -6 -105 18 -105 38 -1 7 -10 2 -21 -11 -28 -34
-166 -138 -211 -159 -41 -19 -45 -29 -25 -56 12 -16 15 -17 20 -3 8 20 143 63
242 77 44 6 109 19 145 30 68 19 266 60 294 60 9 0 16 -8 16 -21 0 -30 -67
-55 -233 -89 -485 -98 -468 -94 -465 -113 2 -10 5 -18 8 -19 5 -1 71 8 355 48
61 9 162 29 225 45 63 17 125 28 138 26 16 -3 22 0 18 9 -31 82 -28 117 19
172 65 77 162 82 251 15 43 -32 57 -71 52 -138 -8 -93 -62 -146 -155 -153 -53
-4 -62 -1 -110 32 -29 20 -53 32 -53 27 0 -18 -74 -61 -140 -82 -125 -39 -417
-88 -524 -89 -36 0 -56 5 -71 20 l-22 21 -26 -40 c-66 -100 -205 -107 -307
-16 -51 46 -70 54 -70 34 0 -9 -24 -10 -82 -6 -93 7 -393 60 -460 81 -130 42
-270 96 -319 123 l-56 31 -17 -29 c-19 -33 -63 -59 -99 -59 -44 0 -114 31
-147 65 -30 31 -35 43 -38 101 l-4 65 46 45 c43 41 50 44 100 44 85 0 156 -62
171 -148 6 -36 8 -38 40 -34 23 3 60 -8 126 -38 138 -62 354 -116 579 -144 69
-9 135 -19 148 -21 18 -4 22 -1 22 17 0 13 11 46 24 75 25 53 52 74 113 87
l31 7 8 110 c6 94 9 109 23 107 18 -4 29 -57 31 -153 l1 -60 42 -20 c23 -11
44 -21 47 -23 3 -1 37 21 76 50 38 29 103 71 144 92 41 22 78 44 82 50 4 6 8
32 8 57 0 32 7 55 21 73 20 26 26 27 92 25 l71 -2 58 114 c32 62 76 141 97
174 21 33 70 122 109 198 l71 138 -27 11 c-84 35 -210 98 -231 115 -17 13 -22
26 -18 38 9 23 29 17 165 -45 117 -54 127 -57 135 -37 3 6 28 70 57 141 82
207 96 228 124 183z m-2338 -11 c7 -29 -14 -214 -27 -238 -6 -10 -21 -18 -36
-18 -25 0 -26 2 -20 48 12 96 48 232 63 232 7 0 16 -11 20 -24z m1752 0 c45
-23 83 -90 89 -155 4 -46 0 -64 -19 -100 -42 -79 -110 -109 -201 -89 -62 13
-108 53 -137 119 -19 46 -20 57 -10 98 15 62 54 119 93 137 39 18 143 12 185
-10z m-1571 -161 c34 -88 64 -164 66 -169 1 -4 54 15 117 44 158 72 190 83
207 69 21 -18 -1 -36 -96 -80 -47 -22 -114 -56 -149 -75 -57 -32 -62 -37 -49
-52 15 -18 53 -91 199 -385 107 -217 120 -232 323 -377 212 -151 243 -180 194
-180 -21 0 -180 91 -316 181 -97 64 -107 66 -152 35 -44 -31 -61 -33 -61 -7 0
14 12 23 42 33 l42 14 -25 17 c-13 10 -74 52 -134 95 -184 129 -362 279 -347
294 13 13 88 -30 199 -115 54 -40 123 -92 153 -115 46 -35 161 -102 176 -102
12 0 -15 38 -47 67 -21 19 -56 62 -77 96 -51 82 -185 340 -207 400 -16 43 -20
47 -52 47 -44 0 -55 26 -22 50 l23 18 -52 154 c-56 166 -64 212 -35 206 13 -2
36 -50 80 -163z m2246 130 c16 -15 45 -127 50 -185 2 -29 -2 -35 -20 -38 -24
-4 -35 25 -54 137 -16 98 -10 120 24 86z m-1378 -71 c39 -9 137 -18 218 -21
150 -6 177 -13 177 -48 0 -18 -25 -23 -104 -18 -38 3 -84 2 -103 -2 -34 -6
-35 -7 -28 -43 8 -42 7 -465 -1 -486 -6 -16 -34 -30 -43 -20 -9 9 -9 516 0
534 6 11 -14 18 -100 36 -122 24 -151 37 -151 64 0 25 36 26 135 4z m-2173
-43 c-3 -9 -1 -12 5 -8 6 4 20 -7 31 -25 31 -51 74 -87 143 -122 68 -35 89
-63 108 -145 15 -70 -27 -83 -81 -23 -47 52 -228 327 -228 347 0 13 2 13 14 3
7 -7 11 -19 8 -27z m451 -2 c23 -12 74 -45 112 -73 39 -29 109 -76 156 -104
88 -53 104 -70 94 -103 -8 -23 -18 -24 -35 -4 -7 9 -54 41 -104 72 -195 120
-296 197 -296 226 0 13 30 7 73 -14z m3762 -38 c-13 -41 -292 -235 -356 -248
-24 -5 -29 -2 -29 15 0 23 23 42 111 92 34 19 80 51 103 71 23 20 66 54 96 77
46 35 57 39 68 28 9 -8 11 -22 7 -35z m80 -83 c-4 -18 -19 -51 -33 -72 -15
-22 -42 -62 -61 -90 -39 -59 -81 -112 -200 -249 -65 -76 -105 -112 -175 -157
-50 -33 -101 -69 -113 -82 -23 -23 -30 -48 -14 -48 22 0 213 84 283 125 43 25
87 46 99 48 27 3 48 -27 34 -48 -6 -8 -104 -62 -220 -121 -223 -113 -231 -116
-390 -118 l-50 -1 2 45 c3 76 12 107 40 134 24 24 32 26 110 26 46 0 82 4 79
9 -3 4 16 22 43 39 87 57 282 259 382 396 121 167 147 196 171 196 17 0 19 -5
13 -32z m-3933 4 c35 -23 162 -160 215 -232 22 -30 109 -126 192 -214 83 -87
151 -165 151 -172 0 -11 9 -9 37 6 91 49 191 -3 218 -112 6 -23 13 -28 39 -29
17 0 26 -3 19 -6 -17 -6 6 -43 27 -44 8 0 10 -3 5 -5 -6 -2 -28 5 -49 16 -39
19 -40 19 -53 0 -37 -53 -157 -50 -218 5 -21 18 -54 36 -74 40 -42 8 -183 74
-291 137 -53 31 -75 49 -75 63 0 38 42 29 157 -35 122 -67 226 -113 239 -104
18 11 8 32 -29 58 -102 70 -562 589 -562 634 0 17 20 15 52 -6z m1517 -69 c6
-21 11 -48 11 -59 0 -13 17 -36 45 -59 90 -73 105 -160 44 -245 -28 -39 -31
-40 -87 -40 -70 0 -126 25 -169 73 -43 49 -50 93 -25 151 21 47 62 80 115 92
26 5 28 10 26 42 -3 62 0 82 16 82 8 0 19 -16 24 -37z m-788 16 c73 -16 144
-86 154 -153 7 -47 0 -107 -16 -138 -6 -10 -33 -36 -60 -58 -44 -34 -58 -40
-100 -40 -27 0 -64 6 -83 14 -77 32 -146 122 -146 188 1 74 64 156 142 185 43
15 47 15 109 2z m1599 -114 c11 -13 9 -20 -12 -43 -13 -15 -50 -81 -82 -147
-110 -230 -107 -226 -136 -180 -13 22 -12 28 7 67 29 57 99 182 132 238 15 25
30 53 34 63 8 21 40 22 57 2z m-530 -45 c0 -16 -90 -69 -106 -63 -29 11 -10
38 41 57 49 18 65 19 65 6z m2828 -76 c129 -81 147 -95 131 -105 -17 -10 -33
-3 -139 67 -116 77 -130 88 -130 104 0 17 15 10 138 -66z m626 18 c151 -75
210 -170 211 -342 0 -88 -3 -101 -33 -162 -38 -77 -87 -125 -173 -169 -71 -35
-177 -49 -244 -30 -117 31 -230 144 -267 265 -35 116 -10 266 58 348 82 97
176 141 292 135 61 -3 86 -11 156 -45z m-5974 -45 c13 -24 13 -28 -6 -54 -48
-64 -140 -19 -113 55 18 47 92 47 119 -1z m3390 25 c27 -22 20 -39 -29 -74
-44 -31 -73 -35 -91 -14 -19 24 -7 59 29 83 41 28 62 29 91 5z m-2645 -25 c55
-30 94 -109 98 -194 2 -53 -1 -65 -23 -88 -38 -41 -76 -56 -136 -56 -84 0
-160 57 -185 139 -9 32 -7 47 11 102 12 36 27 71 33 79 37 44 139 53 202 18z
m1588 -209 c8 -18 27 -62 42 -98 15 -36 58 -126 96 -200 54 -105 69 -146 71
-185 4 -63 -15 -67 -53 -10 -41 62 -199 464 -199 507 0 29 26 21 43 -14z m396
-3 c16 -8 38 -34 50 -58 49 -102 6 -207 -97 -233 -33 -9 -98 23 -133 65 -23
29 -29 45 -29 84 0 96 54 157 138 157 24 0 56 -7 71 -15z m-1739 -175 c63 -43
145 -100 183 -125 49 -34 67 -52 67 -69 0 -27 -18 -46 -43 -46 -22 0 -220 127
-313 201 -66 52 -78 70 -69 100 12 37 56 21 175 -61z m3548 44 c6 -40 -156
-168 -363 -286 -148 -84 -190 -95 -201 -51 -9 35 22 63 152 136 55 31 155 94
224 141 98 68 131 86 155 84 22 -2 31 -9 33 -24z m-4373 -55 c17 -7 43 -22 59
-32 23 -17 30 -18 38 -6 8 12 9 11 5 -1 -2 -8 9 -30 26 -49 46 -53 60 -97 61
-186 0 -88 -18 -139 -74 -207 -72 -87 -199 -120 -326 -83 -78 22 -151 95 -177
174 -52 163 24 352 160 395 56 18 181 15 228 -5z m2765 -17 c14 -11 36 -23 49
-27 29 -9 61 -40 61 -60 0 -24 -27 -29 -63 -12 -17 8 -44 17 -59 21 -24 5 -28
2 -38 -32 -24 -74 -91 -202 -105 -202 -30 0 -17 66 31 156 l46 87 -17 38 c-10
20 -14 43 -10 49 10 17 73 6 105 -18z m2252 -12 c85 -26 151 -84 189 -165 24
-49 29 -73 29 -136 0 -41 -7 -98 -15 -127 -31 -104 -162 -207 -279 -219 -66
-7 -168 19 -221 55 -54 37 -111 124 -129 195 -13 51 -14 68 -1 132 22 114 67
188 142 232 95 56 180 65 285 33z m-3349 -56 c73 -37 87 -52 87 -91 0 -30 -5
-36 -37 -50 -21 -8 -72 -19 -113 -23 -41 -4 -67 -8 -58 -9 10 0 52 -12 95 -26
43 -14 148 -38 233 -54 184 -35 309 -66 368 -91 34 -15 42 -24 42 -44 0 -30
-1 -30 -66 -12 -27 8 -119 29 -204 47 -85 17 -218 49 -294 71 -77 21 -159 42
-183 45 -57 8 -81 29 -83 73 -3 60 -2 62 21 49 12 -6 36 -15 53 -20 27 -7 29
-7 14 5 -19 14 -56 92 -39 81 6 -3 11 2 11 11 0 28 40 64 72 64 16 0 52 -12
81 -26z m-912 -924 c58 -11 196 -75 242 -112 l28 -23 -64 -63 -63 -62 -54 29
c-78 41 -153 56 -209 41 -60 -16 -91 -49 -91 -98 0 -58 33 -85 133 -112 243
-64 315 -102 361 -193 24 -47 29 -71 30 -130 3 -263 -308 -389 -601 -244 -66
32 -163 110 -163 130 0 7 27 41 60 75 l60 64 45 -40 c25 -22 71 -53 103 -68
49 -25 69 -29 143 -29 97 0 120 11 146 73 11 27 11 37 -1 65 -15 38 -63 61
-198 97 -243 63 -323 138 -323 300 0 60 5 85 24 122 53 104 127 158 241 177
77 12 90 12 151 1z m1839 7 c0 -16 -322 -898 -355 -972 l-24 -55 -48 1 c-26 0
-66 3 -87 7 l-39 7 -103 300 -102 300 -21 -48 c-29 -66 -110 -286 -162 -439
l-43 -128 -46 1 c-25 0 -65 4 -89 7 -42 7 -45 10 -59 52 -8 25 -43 126 -79
225 -35 99 -93 261 -128 360 -34 99 -79 224 -99 278 l-35 97 104 0 c104 0 105
0 118 -27 16 -31 151 -429 193 -568 15 -49 29 -83 32 -75 10 32 76 210 114
305 22 55 60 156 83 224 24 68 50 128 57 132 7 5 38 9 69 9 l56 0 16 -42 c9
-24 36 -104 61 -178 87 -264 166 -484 166 -464 0 20 189 546 228 636 l21 47
93 4 c51 1 96 4 101 5 4 1 7 0 7 -1z m-3300 -17 c41 -6 99 -27 156 -55 193
-94 285 -263 272 -499 -7 -115 -52 -220 -127 -295 -73 -73 -179 -129 -279
-147 -78 -13 -445 -20 -476 -8 -14 5 -16 60 -16 510 l0 504 203 0 c111 0 231
-5 267 -10z m814 -82 c3 -50 6 -279 6 -510 l0 -418 -89 0 c-72 0 -90 3 -95 16
-3 9 -6 238 -6 510 l0 494 89 0 88 0 7 -92z m3150 72 c218 -75 358 -272 359
-505 0 -67 -5 -103 -20 -140 -27 -70 -113 -195 -166 -242 -58 -50 -160 -100
-247 -119 -64 -15 -76 -15 -145 1 -113 25 -200 73 -276 152 -81 84 -112 136
-138 233 -36 129 -20 266 42 373 35 59 119 151 172 187 110 76 297 102 419 60z
m1058 9 c69 -15 120 -41 174 -91 62 -57 87 -126 88 -248 0 -86 -2 -101 -29
-155 -25 -49 -42 -68 -92 -101 -34 -23 -68 -44 -75 -47 -16 -6 -9 -18 93 -164
107 -152 129 -185 129 -194 0 -5 -51 -9 -112 -9 l-113 0 -82 138 c-44 75 -88
152 -97 170 l-17 32 -103 0 -103 0 -7 -77 c-3 -42 -6 -118 -6 -170 l0 -93 -88
0 -89 0 -6 368 c-4 202 -7 431 -7 510 l0 142 245 0 c142 0 266 -5 297 -11z
m658 -404 l0 -415 244 0 243 0 7 -52 c3 -29 6 -72 6 -95 l0 -43 -338 0 -339 0
-7 280 c-4 153 -4 383 0 510 l7 230 89 0 88 0 0 -415z m1120 404 c190 -30 358
-182 399 -360 13 -57 13 -202 0 -259 -31 -136 -131 -260 -260 -324 -109 -54
-183 -66 -405 -66 -166 0 -193 2 -198 16 -8 21 -8 989 1 997 10 11 392 8 463
-4z m-1390 -1364 c44 -96 51 -118 39 -126 -24 -15 -37 -10 -48 21 -9 27 -14
30 -56 30 -39 0 -47 -4 -57 -25 -7 -16 -19 -25 -35 -25 -12 0 -23 2 -23 4 0 2
13 32 29 67 16 35 41 90 55 122 14 32 29 56 34 53 5 -3 33 -57 62 -121z
m-4418 85 c15 -18 17 -33 12 -65 -4 -27 -2 -45 5 -49 18 -11 13 -48 -11 -73
-18 -20 -31 -23 -92 -23 l-71 0 -1 121 -1 121 70 -5 c58 -4 74 -9 89 -27z
m140 -36 c4 -32 5 -74 2 -91 l-5 -33 49 0 c43 0 50 -3 56 -22 3 -13 2 -25 -2
-29 -4 -3 -37 -4 -74 -1 l-68 4 0 97 c0 53 3 106 6 119 11 39 29 18 36 -44z
m349 27 c33 -33 39 -45 39 -83 0 -64 -50 -127 -100 -128 -59 0 -130 74 -130
136 0 38 32 82 74 100 51 22 75 17 117 -25z m419 -6 c0 -25 4 -45 8 -45 5 0
23 18 41 40 25 31 39 40 63 40 l31 0 -45 -52 -45 -53 44 -57 c42 -54 48 -78
19 -78 -7 0 -32 23 -56 51 -23 28 -46 47 -51 42 -4 -4 -9 -26 -11 -48 -2 -27
-8 -40 -18 -40 -19 0 -32 97 -24 175 7 63 10 70 30 70 10 0 14 -12 14 -45z
m351 24 c27 -13 39 -26 37 -37 -4 -18 -28 -20 -81 -6 -71 17 -93 -90 -26 -126
15 -8 27 -7 50 4 16 8 37 12 45 9 25 -10 11 -37 -30 -57 -39 -19 -40 -19 -75
1 -46 26 -81 77 -81 119 0 44 65 110 113 113 4 1 26 -8 48 -20z m524 -76 c57
-120 65 -153 38 -153 -12 0 -23 11 -30 30 -10 26 -16 30 -50 30 -31 0 -44 -6
-66 -32 -48 -54 -53 -23 -13 79 46 118 58 143 67 143 4 0 29 -44 54 -97z m340
31 c65 -74 73 -72 74 14 1 35 4 42 21 42 19 0 20 -7 20 -120 0 -135 -7 -146
-57 -88 -16 17 -43 48 -60 67 l-32 36 -1 -67 c0 -51 -3 -68 -14 -68 -7 0 -18
6 -23 13 -10 14 -5 237 6 237 4 0 34 -30 66 -66z m1544 16 c54 -64 71 -65 71
-5 0 48 9 55 34 29 28 -27 16 -206 -14 -212 -10 -1 -26 22 -48 70 -37 83 -52
80 -52 -8 0 -52 -18 -83 -40 -69 -12 7 -14 245 -2 245 5 0 28 -22 51 -50z
m1019 14 c15 -17 22 -38 22 -65 0 -36 -3 -41 -35 -55 -19 -7 -48 -14 -65 -14
-30 0 -31 -2 -28 -37 3 -33 0 -38 -19 -41 -22 -3 -23 -1 -23 91 0 52 -3 108
-6 125 l-6 30 68 -5 c57 -4 73 -9 92 -29z m207 15 c33 -16 51 -54 42 -91 -6
-23 -56 -56 -110 -72 -12 -4 -17 -14 -15 -33 2 -19 -2 -28 -13 -31 -24 -5 -29
29 -22 147 l6 103 42 -4 c23 -3 54 -11 70 -19z m-4131 -2 c10 -7 16 -22 14
-33 -4 -20 -18 -21 -71 -8 -58 14 -88 -56 -46 -110 23 -29 46 -33 74 -12 22
16 55 10 55 -10 0 -19 -41 -44 -81 -50 -41 -7 -78 19 -103 70 -26 55 -21 84
23 127 32 32 46 39 78 39 22 0 47 -6 57 -13z m650 -3 c3 -9 6 -31 6 -50 0 -35
0 -35 43 -32 42 3 42 3 47 48 4 37 9 45 25 45 19 0 20 -7 20 -115 0 -96 -3
-115 -15 -115 -11 0 -16 13 -18 48 l-3 47 -49 0 -49 0 -3 -47 c-2 -26 -9 -48
-15 -51 -21 -6 -33 45 -33 144 0 86 2 94 19 94 10 0 22 -7 25 -16z m541 -47
c3 -32 3 -83 -1 -113 -5 -44 -10 -54 -25 -54 -18 0 -19 9 -19 114 0 106 1 115
19 113 15 -1 20 -12 26 -60z m651 32 c13 -12 29 -39 34 -59 22 -84 -30 -140
-131 -140 l-59 0 0 116 0 117 66 -6 c50 -4 71 -10 90 -28z m324 15 c37 -22 60
-64 60 -109 0 -30 -7 -44 -36 -71 -30 -29 -43 -34 -82 -34 -26 0 -66 9 -88 19
-102 46 -98 137 8 190 51 25 100 27 138 5z m1232 -24 c37 -36 40 -44 35 -79
-10 -77 -51 -108 -147 -113 l-55 -2 -3 117 -3 117 67 0 c64 0 68 -1 106 -40z
m963 28 c14 -6 25 -18 25 -26 0 -11 -9 -13 -39 -9 -36 4 -61 -5 -61 -24 0 -4
25 -19 55 -33 48 -22 55 -29 55 -53 0 -33 -7 -43 -40 -66 -49 -34 -120 -14
-120 35 0 15 4 18 18 12 9 -4 30 -8 47 -8 50 -2 43 27 -15 58 -57 31 -64 55
-29 100 23 29 60 34 104 14z m-1911 -34 c32 -33 46 -132 21 -150 -52 -38 -156
-19 -175 31 -22 59 -7 129 31 143 35 14 97 1 123 -24z m216 -53 l0 -78 31 -7
c17 -3 45 -6 61 -6 40 0 32 -21 -13 -33 -46 -12 -139 -4 -150 14 -5 8 -8 48
-7 89 2 73 2 74 11 30 4 -25 11 -56 15 -70 6 -24 6 -24 9 5 13 124 15 135 29
135 11 0 14 -17 14 -79z m-2195 -376 c77 -26 184 -114 217 -179 30 -58 48
-116 38 -116 -6 0 -10 -9 -10 -20 0 -11 -7 -20 -15 -20 -8 0 -15 7 -15 15 0
24 -24 95 -32 95 -5 0 -8 7 -8 15 0 18 -89 102 -143 135 -33 20 -57 25 -131
28 -80 4 -98 1 -147 -21 -31 -14 -75 -41 -97 -61 l-40 -36 3 32 c2 24 14 43
46 71 47 42 71 54 134 67 52 11 162 8 200 -5z m-402 -155 c-3 -11 -14 -27 -24
-34 -12 -8 -17 -20 -13 -29 3 -10 -2 -20 -14 -26 -20 -11 -20 -10 -5 29 9 22
22 40 28 40 7 0 15 9 18 20 3 11 7 20 10 20 3 0 3 -9 0 -20z m253 8 c4 -6 10
-25 13 -42 4 -18 14 -32 24 -34 13 -3 17 4 17 30 0 42 13 63 34 55 10 -4 16
-19 16 -42 0 -29 6 -39 35 -57 18 -13 39 -34 45 -48 10 -21 8 -26 -14 -43 -14
-10 -26 -22 -26 -26 0 -5 14 -25 30 -46 17 -21 30 -46 30 -56 0 -27 -48 -59
-87 -59 l-35 0 7 -41 c6 -36 5 -40 -11 -37 -13 2 -20 14 -22 33 -8 65 -42 69
-42 4 0 -35 -2 -39 -26 -39 -25 0 -26 2 -20 35 l7 35 -44 0 c-32 0 -47 5 -51
16 -11 28 -7 34 22 34 l29 0 7 102 c7 109 4 118 -41 118 -16 0 -23 6 -23 20 0
17 7 20 40 20 l40 0 0 40 c0 33 3 40 19 40 11 0 23 -5 27 -12z"/>
<path d="M7323 9219 c-73 -36 -130 -94 -169 -174 -34 -70 -36 -79 -32 -148 6
-96 41 -171 110 -240 76 -76 134 -101 223 -95 163 11 283 110 330 272 43 147
-41 308 -197 381 -71 33 -201 35 -265 4z m92 -80 c4 -6 7 -26 8 -45 1 -29 4
-34 21 -32 14 2 22 13 27 34 8 42 17 54 39 54 15 0 17 -6 13 -41 -7 -46 4 -59
49 -59 20 0 28 -7 37 -31 16 -45 14 -54 -14 -87 -24 -29 -24 -31 -7 -37 11 -3
27 -14 37 -25 40 -44 -19 -150 -84 -150 -29 0 -31 -2 -31 -39 0 -31 -4 -40
-22 -44 -33 -9 -41 2 -35 45 4 29 1 41 -10 45 -20 8 -33 -14 -33 -54 0 -28 -3
-33 -25 -33 -23 0 -25 4 -25 46 0 40 -2 45 -17 39 -37 -15 -48 -11 -48 20 0
25 5 31 25 33 25 3 25 3 27 120 l2 118 -35 -4 c-29 -4 -34 -1 -34 16 0 31 27
54 50 42 27 -14 30 -13 30 16 0 49 36 84 55 53z"/>
<path d="M7414 8989 c3 -17 6 -40 6 -50 0 -33 65 -25 101 11 17 16 28 34 24
40 -7 12 -71 30 -109 30 -27 0 -28 -2 -22 -31z"/>
<path d="M7410 8825 l0 -45 68 0 c72 0 92 10 92 45 0 35 -20 45 -92 45 l-68 0
0 -45z"/>
<path d="M5410 8926 c0 -19 5 -26 19 -26 26 0 292 -92 376 -130 39 -18 95 -41
125 -53 30 -11 102 -45 160 -75 l105 -55 -66 69 c-36 38 -78 90 -93 116 -23
39 -34 48 -64 54 -20 3 -60 19 -88 35 -58 31 -160 53 -329 69 -60 6 -118 13
-127 16 -14 4 -18 -1 -18 -20z"/>
<path d="M5133 8655 c-20 -68 -105 -385 -157 -589 -14 -54 -29 -121 -32 -149
-7 -49 -7 -50 18 -44 57 15 98 39 113 66 8 16 30 42 50 58 l35 29 -2 349 -3
349 -22 -69z"/>
<path d="M2448 8946 c-44 -16 -110 -71 -147 -123 -94 -131 -80 -315 33 -428
74 -74 133 -100 226 -100 89 1 144 24 218 90 91 82 128 195 108 328 -13 86
-106 193 -201 233 -43 18 -187 18 -237 0z m78 -116 c4 -22 10 -40 15 -40 14 0
39 31 39 50 0 10 5 22 12 26 14 9 40 -26 35 -47 -3 -11 6 -20 29 -28 24 -9 41
-25 54 -51 26 -50 25 -54 -7 -85 -25 -23 -26 -27 -11 -36 35 -20 48 -41 48
-80 0 -52 -27 -79 -80 -79 l-40 0 0 -46 c0 -38 -3 -45 -17 -42 -13 2 -19 15
-21 46 -3 34 -7 42 -23 42 -15 0 -19 -7 -19 -34 0 -39 -8 -47 -36 -40 -16 4
-19 12 -16 35 4 28 3 29 -42 29 -44 0 -46 1 -46 30 0 27 3 30 30 30 l30 0 -2
120 -2 120 -33 0 c-26 0 -33 4 -33 19 0 26 17 36 57 32 32 -2 33 -1 33 33 0
29 4 36 20 36 15 0 21 -9 26 -40z"/>
<path d="M2528 8744 c-5 -4 -8 -27 -8 -51 l0 -44 52 3 c45 3 54 7 68 30 13 25
13 29 -2 44 -17 17 -98 31 -110 18z"/>
<path d="M2532 8558 l3 -43 65 0 c73 0 86 14 56 60 -14 22 -24 25 -72 25 l-55
0 3 -42z"/>
<path d="M8020 8179 c0 -5 4 -9 9 -9 5 0 13 -9 16 -20 8 -25 25 -17 18 9 -5
19 -43 37 -43 20z"/>
<path d="M8035 8110 c-19 -8 -19 -9 3 -9 12 -1 22 4 22 9 0 6 -1 10 -2 9 -2 0
-12 -4 -23 -9z"/>
<path d="M5132 7388 c3 -29 7 -33 34 -36 18 -2 47 1 65 6 27 6 34 13 34 33 0
23 -3 24 -68 27 l-68 3 3 -33z"/>
<path d="M5130 7245 l0 -45 53 1 c56 1 117 21 117 38 0 6 -9 20 -20 31 -16 16
-33 20 -85 20 l-65 0 0 -45z"/>
<path d="M5133 7128 c2 -7 12 -13 22 -13 10 0 20 6 23 13 2 7 -6 12 -23 12
-17 0 -25 -5 -22 -12z"/>
<path d="M5980 6805 c0 -39 3 -46 16 -41 9 3 32 6 53 6 45 0 75 19 66 42 -8
20 -21 25 -85 34 l-50 7 0 -48z"/>
<path d="M5988 6689 c-21 -12 -23 -38 -4 -64 12 -16 20 -17 76 -9 77 11 99 34
61 65 -26 21 -103 26 -133 8z"/>
<path d="M4280 6215 l0 -55 58 0 c31 0 68 6 81 13 27 14 43 48 32 66 -10 16
-72 30 -128 31 l-43 0 0 -55z"/>
<path d="M4278 6036 l-3 -66 78 0 c73 0 80 2 108 29 34 34 34 39 11 68 -14 18
-31 23 -104 29 l-86 7 -4 -67z"/>
<path d="M3520 6062 c0 -36 3 -40 31 -46 43 -8 79 2 79 24 0 24 -29 46 -72 54
l-38 7 0 -39z"/>
<path d="M3504 5946 c-17 -46 44 -81 104 -60 30 10 43 51 20 65 -23 15 -118
11 -124 -5z"/>
<path d="M5978 5980 c-1 -29 -1 -54 1 -56 2 -2 31 -4 63 -4 45 0 63 5 78 20
45 45 18 70 -92 85 l-46 6 -4 -51z"/>
<path d="M5980 5815 l0 -55 64 0 c53 0 70 4 92 23 21 18 26 29 21 49 -8 30
-30 38 -114 38 l-63 0 0 -55z"/>
<path d="M1658 5918 c-9 -25 4 -38 37 -38 35 0 51 20 32 39 -15 15 -64 14 -69
-1z"/>
<path d="M1681 5841 c-7 -5 -15 -22 -17 -39 -5 -30 -3 -32 23 -32 39 0 55 13
51 40 -3 25 -37 43 -57 31z"/>
<path d="M5148 5749 c2 -30 8 -58 12 -63 5 -4 32 -5 61 -1 64 9 106 43 90 74
-13 24 -32 31 -107 38 l-61 6 5 -54z"/>
<path d="M5140 5575 l0 -55 78 0 c88 0 102 8 102 57 0 43 -21 53 -109 53 l-71
0 0 -55z"/>
<path d="M1860 4801 c-78 -17 -122 -53 -164 -139 -38 -75 -43 -134 -17 -202
44 -118 131 -180 252 -180 141 0 259 110 259 242 0 72 -14 117 -54 175 -61 89
-166 128 -276 104z m30 -81 c0 -17 7 -20 44 -20 49 0 98 -29 124 -71 14 -25
14 -29 -6 -54 l-22 -27 30 -28 c17 -15 30 -31 30 -36 0 -17 -53 -75 -83 -90
-24 -13 -49 -15 -108 -11 -94 6 -124 19 -109 47 6 11 20 20 32 20 16 0 19 4
14 23 -3 12 -6 54 -6 94 0 67 -2 72 -22 75 -17 2 -23 10 -23 28 0 20 6 26 30
28 16 2 35 12 43 23 17 25 32 24 32 -1z"/>
<path d="M1907 4633 c-29 -7 -19 -67 12 -71 39 -6 71 7 71 27 0 48 -23 60 -83
44z"/>
<path d="M1894 4495 c-8 -33 -1 -40 46 -40 45 0 74 23 64 48 -5 13 -18 17 -55
17 -44 0 -49 -3 -55 -25z"/>
<path d="M8194 4442 c-64 -36 -104 -76 -131 -130 -39 -80 -39 -191 -1 -273 67
-145 200 -219 342 -189 106 22 201 111 232 218 15 49 15 67 5 126 -30 179
-138 266 -329 266 -63 -1 -96 -6 -118 -18z m97 -97 c16 -44 40 -42 51 3 10 39
43 42 43 3 0 -17 10 -27 35 -37 80 -34 101 -86 54 -135 l-25 -26 31 -13 c38
-16 53 -42 45 -80 -8 -37 -34 -59 -86 -74 -29 -9 -49 -22 -59 -41 -19 -34 -36
-30 -32 8 3 25 0 28 -19 25 -15 -2 -23 -11 -26 -28 -7 -48 -43 -52 -43 -4 0
20 -5 24 -29 24 -51 0 -72 61 -23 68 20 3 22 8 22 76 0 41 3 88 6 105 6 29 5
31 -25 31 -29 0 -31 3 -31 34 0 32 2 34 33 32 29 -1 32 2 35 32 4 43 27 41 43
-3z"/>
<path d="M8307 4253 c-4 -3 -7 -24 -7 -46 l0 -40 42 6 c53 7 98 48 78 71 -13
16 -100 23 -113 9z"/>
<path d="M8297 4113 c-3 -5 -2 -23 0 -40 5 -32 6 -33 58 -33 57 0 91 20 81 47
-3 8 -6 19 -6 24 0 11 -127 12 -133 2z"/>
<path d="M2486 3996 c-69 -26 -132 -107 -151 -194 -10 -48 12 -124 55 -191 50
-78 83 -95 180 -95 149 1 250 89 250 217 0 98 -52 200 -125 243 -56 32 -150
42 -209 20z m205 -114 c32 -35 37 -73 14 -92 -21 -18 -19 -34 8 -45 36 -16 34
-58 -6 -102 -33 -35 -39 -38 -113 -44 -44 -4 -84 -3 -90 2 -5 4 -19 6 -31 3
-11 -3 -24 -1 -27 5 -10 15 12 51 31 51 24 0 10 174 -18 212 -33 47 -28 50 92
46 l111 -3 29 -33z"/>
<path d="M2567 3843 c-4 -3 -7 -19 -7 -35 0 -27 3 -29 33 -26 28 3 32 7 35 36
3 29 1 32 -26 32 -16 0 -32 -3 -35 -7z"/>
<path d="M2557 3734 c-11 -11 -8 -49 5 -62 19 -19 66 -14 88 8 21 21 25 36 13
43 -16 10 -98 18 -106 11z"/>
<path d="M7546 3968 c-97 -13 -175 -85 -207 -191 -34 -109 -17 -176 64 -265
53 -57 106 -81 178 -82 68 0 110 13 167 54 164 116 154 373 -18 457 -65 32
-105 38 -184 27z m94 -99 c0 -21 5 -29 18 -29 9 0 32 -9 50 -20 34 -21 40 -43
20 -85 -10 -22 -8 -28 10 -48 12 -13 22 -32 22 -43 0 -50 -72 -99 -129 -88
-30 6 -31 5 -31 -30 0 -29 -4 -36 -20 -36 -16 0 -20 7 -20 35 0 35 0 35 -45
35 -41 0 -45 2 -45 25 0 20 5 25 26 25 l25 0 -7 83 c-3 45 -8 85 -11 90 -2 4
-15 7 -29 7 -21 0 -25 4 -22 23 2 17 11 23 34 25 26 3 33 8 38 33 8 40 36 39
36 -1 0 -25 4 -30 25 -30 21 0 25 5 25 28 0 16 3 32 6 35 12 12 24 -4 24 -34z"/>
<path d="M7582 3781 c-24 -15 -10 -46 23 -49 38 -4 68 17 59 41 -7 18 -58 24
-82 8z"/>
<path d="M7572 3648 c3 -32 4 -33 53 -33 49 0 50 1 53 33 l3 32 -56 0 -56 0 3
-32z"/>
<path d="M1706 2748 c-3 -50 -6 -191 -6 -313 l0 -223 98 4 c207 9 263 26 333
101 63 69 84 123 84 219 0 109 -35 181 -115 236 -76 54 -132 68 -270 68 l-117
0 -7 -92z"/>
<path d="M5702 2920 c-91 -41 -227 -209 -259 -319 -13 -46 -14 -64 -4 -99 6
-23 11 -55 11 -70 0 -52 48 -127 134 -210 82 -79 174 -142 208 -142 9 0 58 27
107 61 146 97 247 240 258 365 4 50 0 72 -27 144 -29 74 -42 94 -104 155 -125
124 -226 159 -324 115z m73 -260 c3 -129 8 -248 11 -263 8 -40 27 -28 39 24 6
24 13 49 17 54 3 6 9 27 13 47 8 41 26 53 57 37 11 -6 22 -9 24 -7 2 3 -27 22
-66 44 l-70 39 1 115 c0 63 4 123 8 133 6 18 7 18 23 0 8 -10 41 -61 73 -113
31 -52 81 -125 111 -162 58 -72 65 -88 35 -88 -11 0 -22 -4 -26 -9 -11 -20
-226 -161 -243 -161 -23 0 -234 159 -226 171 3 5 -6 9 -21 9 -25 0 -25 0 -8
28 112 182 230 349 239 339 1 -1 5 -108 9 -237z m-271 -209 c37 -33 260 -161
282 -161 11 0 59 23 105 52 46 28 113 67 148 86 l64 35 -28 -37 c-15 -20 -70
-70 -121 -112 -85 -68 -154 -146 -154 -173 0 -6 -1 -11 -3 -11 -8 0 -277 270
-300 303 -30 40 -26 49 7 18z"/>
<path d="M6658 2693 c2 -87 6 -160 8 -162 1 -2 70 1 151 6 177 12 205 23 235
90 40 90 -4 186 -97 212 -22 6 -99 11 -170 11 l-131 0 4 -157z"/>
<path d="M8500 2525 l0 -315 118 6 c167 8 254 44 311 128 44 66 56 105 56 186
-1 107 -18 153 -77 216 -73 77 -124 94 -283 94 l-125 0 0 -315z"/>
<path d="M7312 1675 c-17 -36 -15 -45 8 -45 14 0 20 7 20 23 0 39 -15 51 -28
22z"/>
<path d="M2860 1699 c0 -17 5 -20 32 -17 22 2 34 9 36 21 3 14 -4 17 -32 17
-30 0 -36 -4 -36 -21z"/>
<path d="M2860 1604 c0 -24 3 -26 32 -20 67 13 73 46 7 46 -35 0 -39 -2 -39
-26z"/>
<path d="M3346 1709 c-34 -27 -34 -68 0 -103 39 -39 75 -31 103 22 17 31 -3
80 -36 93 -33 12 -37 12 -67 -12z"/>
<path d="M4699 1695 c-14 -23 -18 -64 -8 -71 20 -12 33 13 23 48 -5 18 -12 28
-15 23z"/>
<path d="M7550 1690 c0 -25 4 -30 24 -30 25 0 60 36 50 52 -3 4 -21 8 -40 8
-31 0 -34 -2 -34 -30z"/>
<path d="M7790 1690 c0 -23 5 -30 19 -30 26 0 52 27 45 45 -4 9 -19 15 -35 15
-26 0 -29 -4 -29 -30z"/>
<path d="M5470 1654 l0 -66 33 7 c44 10 67 33 67 66 0 33 -32 59 -72 59 -28 0
-28 -1 -28 -66z"/>
<path d="M5775 1707 c-52 -20 -60 -53 -20 -92 18 -19 35 -25 69 -25 37 0 48 5
70 31 32 38 32 44 1 74 -26 27 -68 31 -120 12z"/>
<path d="M7010 1655 l0 -65 29 0 c33 0 66 25 75 56 10 34 -28 74 -70 74 l-34
0 0 -65z"/>
<path d="M6110 1713 c-33 -12 -39 -32 -24 -78 17 -50 32 -50 85 -5 33 28 34
29 19 57 -15 28 -47 38 -80 26z m52 -58 c-6 -34 -12 -32 -12 6 0 16 4 28 9 25
4 -3 6 -17 3 -31z"/>
<path d="M4435 999 c-4 -6 -5 -12 -2 -15 2 -3 7 2 10 11 7 17 1 20 -8 4z"/>
<path d="M4054 1006 c-11 -45 3 -66 45 -66 24 0 44 7 54 18 36 40 10 72 -57
72 -29 0 -37 -4 -42 -24z"/>
<path d="M4050 872 c0 -51 19 -65 79 -57 59 8 71 23 47 60 -14 22 -24 25 -71
25 -54 0 -55 -1 -55 -28z"/>
</g>
</svg>
